{"title":"Seeking Justice[2011]ENG[BRRip]Xvid-{RedDragon}","uid":7001540,"size":837468194,"categoryP":"video","categoryS":"movies","magnet":"?xt=urn:btih:9ca5425b267915c64dead856f7ca62bb8ce67908&amp;dn=Seeking+Justice%5B2011%5DENG%5BBRRip%5DXvid-%7BRedDragon%7D&amp;tr=udp%3A%2F%2Ftracker.openbittorrent.com%3A80&amp;tr=udp%3A%2F%2Fopen.demonii.com%3A1337&amp;tr=udp%3A%2F%2Ftracker.coppersurfer.tk%3A6969&amp;tr=udp%3A%2F%2Fexodus.desync.com%3A6969","seeders":0,"leechers":1,"uploader":"RedDr4gon","files":8,"time":1328083267,"description":"Plot.\n\nAfter his wife is assaulted, a husband enlists the services of a vigilante group to help him settle the score. \n\n\nGeneral.\n\nComplete name                    :  Seeking.Justice.[2011].ENG.[BRRip].Xvid.-.{RedDragon} .avi\nFormat                           : MPEG-4\nFormat profile                   : Base Media / Version 2\nCodec ID                         : mp42\nFile size                        : 799 MiB\nDuration                         : 1h 44mn\nOverall bit rate                 : 1 065 Kbps\nIMDb LINK                       : www.imdb.com/title/tt1214962/\nIMDb Rating                     : 6.1\n\n\nVideo.\n\nID                               : 1\nFormat                           : AVC\nFormat/Info                      : Advanced Video Codec\nFormat profile                   : &lt;a class=&quot;__cf_email__&quot; href=&quot;/cdn-cgi/l/email-protection&quot; data-cfemail=&quot;115c70787f515d233f20&quot;&gt;[email&amp;#160;protected]&lt;/a&gt;&lt;script cf-hash='f9e31' type=&quot;text/javascript&quot;&gt;\n/* &lt;![CDATA[ */!function(){try{var t=&quot;currentScript&quot;in document?document.currentScript:function(){for(var t=document.getElementsByTagName(&quot;script&quot;),e=t.length;e--;)if(t[e].getAttribute(&quot;cf-hash&quot;))return t[e]}();if(t&amp;&amp;t.previousSibling){var e,r,n,i,c=t.previousSibling,a=c.getAttribute(&quot;data-cfemail&quot;);if(a){for(e=&quot;&quot;,r=parseInt(a.substr(0,2),16),n=2;a.length-n;n+=2)i=parseInt(a.substr(n,2),16)^r,e+=String.fromCharCode(i);e=document.createTextNode(e),c.parentNode.replaceChild(e,c)}}}catch(u){}}();/* ]]&gt; */&lt;/script&gt;\nFormat settings, CABAC           : Yes\nFormat settings, ReFrames        : 4 frames\nCodec ID                         : avc1\nCodec ID/Info                    : Advanced Video Coding\nDuration                         : 1h 44mn\nBit rate mode                    : Variable\nBit rate                         : 904 Kbps\nWidth                            : 584 pixels\nHeight                           : 320 pixels\nDisplay aspect ratio             : 16:9\nFrame rate mode                  : Variable\nFrame rate                       : 23.976 fps\nMinimum frame rate               : 11.987 fps\nMaximum frame rate               : 23.981 fps\nColor space                      : YUV\nChroma subsampling               : 4:2:0\nBit depth                        : 8 bits\nScan type                        : Progressive\nBits/(Pixel*Frame)               : 0.202\nStream size                      : 674 MiB (84%)\nWriting library                  : x264 core 112\n\n\nAudio.\n\nID                               : 2\nFormat                           : AAC\nFormat/Info                      : Advanced Audio Codec\nFormat version                   : Version 4\nFormat profile                   : LC\nFormat settings, SBR             : No\nCodec ID                         : 40\nDuration                         : 1h 44mn\nBit rate mode                    : Variable\nBit rate                         : 160 Kbps\nMaximum bit rate                 : 329 Kbps\nChannel(s)                       : 2 channels\nChannel positions                : Front: L R\nSampling rate                    : 48.0 KHz\nStream size                      : 120 MiB (15%)\nEncoded date                     : UTC 2012-01-31 08:05:10\nTagged date                      : UTC 2012-01-31 08:42:48\n","torrent":{"xt":"urn:btih:9ca5425b267915c64dead856f7ca62bb8ce67908","amp;dn":"Seeking+Justice%5B2011%5DENG%5BBRRip%5DXvid-%7BRedDragon%7D","amp;tr":["udp%3A%2F%2Ftracker.openbittorrent.com%3A80","udp%3A%2F%2Fopen.demonii.com%3A1337","udp%3A%2F%2Ftracker.coppersurfer.tk%3A6969","udp%3A%2F%2Fexodus.desync.com%3A6969"],"infoHash":"9ca5425b267915c64dead856f7ca62bb8ce67908","infoHashBuffer":{"type":"Buffer","data":[156,165,66,91,38,121,21,198,77,234,216,86,247,202,98,187,140,230,121,8]},"announce":[],"urlList":[]}}